<?xml version="1.0" encoding="utf-8"?>
<!-- Generator: Adobe Illustrator 16.0.0, SVG Export Plug-In . SVG Version: 6.00 Build 0)  -->
<!DOCTYPE svg PUBLIC "-//W3C//DTD SVG 1.1 Tiny//EN" "http://www.w3.org/Graphics/SVG/1.1/DTD/svg11-tiny.dtd">
<svg version="1.1" baseProfile="tiny" id="svg-tree" xmlns="http://www.w3.org/2000/svg" xmlns:xlink="http://www.w3.org/1999/xlink"
	 x="0px" y="0px" width="100%" height="100%" viewBox="0 0 163.188 308.744" xml:space="preserve">
<g>
	<g>
		<g>
			<g>
				<path fill="#126152" d="M75.029,304.491c0,0,6.739-49.708,5.681-59.455c-1.063-9.734-1.063-28.264-1.063-28.264l-2.344-24.919
					c0,0-1.921-14.064-0.655-17.398C77.919,171.133,79,162.367,79,162.367s1.18-24.013,0.981-29.453
					c-0.22-5.438,2.172-22.617,2.172-22.617l1.343-13.86c0,0,0.415-2.919,0.133-10.526c-0.175-4.623-0.844-33.362,2.062-30.234
					c2.904,3.114,4.46,36.721,4.46,36.721s1.188,3.207,0.727,9.758c-0.456,6.558-0.934,12.568-0.934,12.568l0.578,19.846
					l-3.029,30.636l-0.092,16.349l1.311,34.785c0,0,3.398,34.677,2.833,37.969c-0.578,3.296,4.495,51.137,4.495,51.137
					S78.411,307.167,75.029,304.491z"/>
				<path fill="#9A5641" d="M77.845,306.018c0,0,6.241-45.542,5.944-53.511l-5.446-70.155l2.326-12.449l1.324-39.262
					c0,0,0.3-16.702,1.636-18.222c1.34-1.526,2.508-20.453,2.374-23.366c0,0-0.201-18.13,0.865-14.542
					c1.063,3.553,1.36,23.873,1.028,27.512c-0.323,3.648-0.438,13.104-0.323,16c0.116,2.895,1.277,9.379,0.492,13.042
					c-0.791,3.663-4.143,38.681-3.479,43.731c0.648,5.05,0.296,20.305,0.296,20.305s3.171,47.041,3.316,50.653
					c0.121,3.639,5.037,55.957,6.134,60.264c1.094,4.297-1.496,0.513-7.948,2.275C79.919,310.071,77.845,306.018,77.845,306.018z"/>
				<g>
					<path fill="#126152" d="M154.92,185.831l-1.509-2.421c6.884,0.56-4.777-8.152-4.777-8.152c-4.756-2.664-3.748-3.043-5.34-4.072
						c-4.146-2.723-11.213-7.779-8.724-5.408c-1.449-1.369-7.296-2.08-7.296-2.08s-3.456,1.167-3.536-0.999
						c-0.089-2.175-1.579-5.011-1.579-5.011l-3.251-1.301c0.288-1.825,0.068-4.368-0.565-6.753c1.837,0.474,3.372,1.253,4.303,2.59
						c4.427,6.315,5.627,0.815,1.235-4.427l9.314,6.084l-0.166-4.356l8.658,7.195l9.24,3.9c0,0-1.514-3.198-7.264-7.263
						c-5.754-4.075-15.062-10.147-15.062-10.147s-14.778-2.531-17.042-6.777c-0.765-1.473-1.938-3.165-3.156-4.744
						c7.124,2.711,14.467,5.023,14.467,5.023l-9.533-6.069l-12.215-7.592l-6.158-6.839c-1.126-3.589-1.126-6.626-0.699-9.163
						c0.178,0.61,0.335,1.218,0.498,1.79c-0.204,3.917,1.564,6.484,1.564,6.484l2.786-8.431c0.012,0.036,0.029,0.062,0.05,0.104
						l-0.669,3.861c0,0,1.94,2.083,2.998,5.672c0.439,1.434,0.706,0.249,0.845-1.668c0.128,0.074,0.231,0.208,0.341,0.219
						c0.942,0.074,0.524-3.485-0.109-7.056c0-0.16,0-0.282,0-0.282l1.321,0.951l1.446,3.93c0,0,3.761,14.867,5.27,12.325
						c0.035-0.068,0.05-0.145,0.092-0.219c1.087,2.166,1.247-1.802,1.167-5.56c0.913,2.664,1.953,4.964,2.709,4.427
						c0.667-0.48-0.214-4.356-1.509-8.869l2.884,1.802c0,0,3.082,7.835,5.005,9.187c1.911,1.348-1.266-8.638-1.266-8.638
						l6.706,4.732c0,0,4.033,7.8,5.883,7.714c1.867-0.098-2.593-7.142-2.593-7.142l5.799,5.524c4.392,5.583,9.836,1.689,6.046-0.293
						c-3.809-1.994-16.353-13.711-16.353-13.711s-6.934-10.544-11.785-15.392c-1.55-1.57-4.104-2.617-6.854-3.333l-2.433-6.546
						c0.255-0.036,0.456-0.213,0.631-0.474l6.158,5.488l2.699-2.312l2.549,5.687l3.829,2.709l-0.214-5.806
						c0,0,1.902,1.363,3.42,4.199c1.496,2.821,5.254,3.37,5.254,3.37l-5.05-9.916l3.426,4.184c4.374,4.866,7.089,2.555,7.089,2.555
						l-3.085-7.83c0,0-9.089-6.09-15.214-7.974c-4.229-1.277-15.31-13.956-21.775-21.713c0-1.309-0.047-5.749-1.155-8.932
						c2.848,1.394,7.1,4.052,7.142,7.361c0.08,4.948,11.012,1.395,11.012,1.395l-4.478-7.404c0,0,5.657,1.904,7.794,2.866
						c2.127,0.991,4.916,0.858,4.916,0.858s-8.694-8.293-12.218-9.192c-2.664-0.693-14.174-16.328-19.728-24.055l-2.478-8.615
						L81.271,0c0,0-3.627,8.889-2.981,13.931c0.664,5.062-6.967,19.323-6.967,19.323s-8.499,9.125-13.134,10.092
						c-4.623,0.944-9.053,6.967-9.053,6.967s-4.045,3.837-6.399,3.236c-2.354-0.621-4.531,3.115,0.548,2.147
						c5.087-0.991,7.387-1.818,7.387-1.818l-4.875,6.776c0,0,2.806-0.146,5.933-3.193c3.162-3.073,4.964-4.605,4.964-4.605
						l-2.469,8.82c0,0,3.722-0.182,5.005-3.138c1.289-2.981,4.398-7.484,4.398-7.484l2.587,7.13l8.176-1.082
						c-0.261,1.982-0.652,2.809-0.652,2.809s-16.254,13.866-21.79,15.587l-12.41,4.247l-8.055,9.101c0,0-0.323,3.651,3.309,1.301
						l4.059-3.843c0,0-6.225,8.297-2.981,7.426c3.225-0.904,6.315-5.394,6.315-5.394l4.599-1.686l-3.862,8.887
						c0,0,4.159-0.925,6.352-4.658c2.185-3.737,4.013-4.558,4.013-4.558l1.461,1.381l-3.017,6.679c0,0,2.705-2.299,4.939-4.599
						c0.833-0.839,3.761-1.093,7.148-1.093c-1.642,2.468-4.659,4.928-4.508,8.961c-1.947-0.593-2.08,2.718-5.245,2.877
						c0,0-16.115,5.156-18.791,8.188c0,0-4.277-1.959-8.87-0.293c-4.6,1.704-1.234,4.43,1.551,4.297l-5.451,3.894
						c0,0-10.274,11.4-2.89,9.592l5.359-6.09c0,0-1.673,5.171,2.409,2.069l5.367-6.084l-1.973,9.539c0,0,3.663-1.63,3.56-4.531
						l3.03-5.957c0,0-0.463,12.36,0.797,8.662c1.26-3.675,2.962-8.126,2.962-8.126s0.707,6.496,2.981,4.937
						c2.262-1.567,1.198-5.144,1.198-5.144l4.069-3.103l3.535,7.098c0,0,1.668-5.177,3.487-6.721c1.793-1.544,3.654-1.63,3.654-1.63
						l1.177,1.654l-0.356,1.229c-5.277,1.837-7.062,7.957-7.062,7.957l0.122,1.559c-18.306,5.731-27.985,11.667-30.881,13.664
						c-4.538,3.132-11.194,12.171-11.194,12.171s-5.324,6.783-2.08,6.626c3.261-0.157,4.495-4.576,4.495-4.576l4.971-3.882
						l-3.334,10.351c0,0,5.84-6.116,6.192-9.035c0.353-2.901,4.478-4.576,4.478-4.576l-0.511,10.914c0,0,0.9-0.768,3.121-3.784
						c2.202-3.017,2.008-8.09,3.419-8.152c1.393-0.059,5.062-1.704,5.062-1.704l-1.15,5.402c-0.298,0.044-0.62,0.148-0.968,0.501
						c-3.138,3.248-5.103,3.9-5.103,3.9s-1.625,2.975-2.97,4.495c2.318-2.616-7.586,2.738-8.097,7.667
						c-0.263,2.561-1.424-0.67-5.957,2.469c0,0-6.862,6.869-1.307,5.864l-4.861,6.777c0,0-10.16,15.027-6.437,14.832
						c3.718-0.178,6.242-7.568,6.242-7.568s-1.643,5.888,2.104,6.437c3.749,0.542,7.149-8.333,7.149-8.333l5.31-7.527
						c0,0-3.704,13.258,0,12.333c3.681-0.895,1.442-10.953,5.567-12.606c4.143-1.668,8.657-5.512,8.657-5.512
						s-2.816,11.753-0.597,8.736c2.203-3.005,6.91-14.126,9.235-14.248c2.323-0.122-2.185,16.085,6.649,3.304
						c4.356-6.297,5.797-8.742,6.131-9.607l6.615,1.704c0.328,0.913,0.648,1.808,1.001,2.7l-4.75,3.103c0,0-2.08-0.071-2.445,3.129
						c-0.37,3.198-3.171,3.417-3.171,3.417s-2.433,1.899-3.57,3.749c1.686-2.726-4.78-1.422-4.19,5.962
						c-1.601,0.59-3.159,1.266-4.63,2.081c0,0-1.869,2.474-2.508,4.478c-0.771,1.01-1.393,2.006-1.739,2.907
						c-3.06,0.427-7.494,1.497-11.103,4.356l-8.511,10.828l-7.416,6.68c0,0-7.539,14.651,3.065,4.83l5.341-8.164l4.144,0.693
						l-6.521,8.141c0,0-8.268,12.277,3.93,1.265c3.704-3.345,6.752-8.736,6.752-8.736l4.618-2.542
						c-2.519,5.684-5.676,13.468-4.174,13.955c2.36,0.768,5.379-9.305,5.379-9.305s-2.166,8.138,0.066,9.963
						c2.251,1.832,3.455-9.868,3.455-9.868l1.15-1.082c0.736,1.156,1.533,2.252,2.287,3.029c-0.019,3.114,0.286,6.389,1.606,6.232
						c2.488-0.293,3.704-12.936,6.611-14.201c0.086-0.047,0.178-0.133,0.264-0.184c0.51,3.36,1.307,6.839,2.492,8.688
						c-1.787,7.083-4.732,19.479-3.461,20.216c1.772,1.028,3.808-11.711,3.808-11.711s-1.446,10.295,0.246,12.678
						c1.713,2.385,4.336-12.793,4.336-12.793l3.372-11.966c0,0-2.397,14.467-0.549,14.15c1.832-0.311,2.001-9.002,4.144-10.549
						c2.133-1.544,1.393-0.06,1.393-0.06s-0.312,11.706,1.082,6.97c0.767-2.676,1.547-7.361,2.258-10.852l1.588,5.171l0.821-0.341
						c0.37,4.143,1.218,5.841,3.876-5.245c2.116-8.819,2.718-11.569,2.718-11.569l4.412-1.485c0,0,1.369,0.779,1.953-2.368
						c0.711,2.039,1.671,4.715,2.987,8.297c6.715,18.171,2.492-5.571,4.003-5.651c1.509-0.074,5.426,16.073,7.092,20.332
						c1.662,4.282-1.1-13.006-1.1-13.006s3.212,5.293,5.986,7.337c2.797,2.018,2.172,17.312,4.616,18.275
						c2.434,0.972-1.004-18.465-1.004-18.465l4.021,10.695c0,0,2.895,12.914,5.257,11.711c2.358-1.203,0.826-9.838,0.826-9.838
						s2.22,10.787,4.617,10.666s-5.322-21.511-5.322-21.511l-3.669-9.625c3.651,0.901,2.786-9.661-0.37-13.857
						c-0.554-0.738-1.155-1.034-1.778-1.084c-0.255-0.862-0.441-1.44-0.441-1.44s4.78,3.387,9.026,4.629
						c4.229,1.242,2.763,11.492,6.505,12.022c3.752,0.533-0.931-12.295-0.931-12.295l5.859,6.964c0,0,4.051,8.517,7.749,7.592
						c3.687-0.901,1.605-6.605,1.605-6.605s3.067,7.106,6.79,6.922c3.716-0.181-7.533-14.15-7.533-14.15l-5.358-6.268
						c2.081,0.172,3.242-0.705,3.669-1.982c2.312,3.032,1.77,10.366,4.935,10.816c3.757,0.548-0.925-12.289-0.925-12.289
						l5.864,6.973c0,0,4.033,8.517,7.743,7.592c3.692-0.901,1.606-6.605,1.606-6.605s3.067,7.104,6.789,6.923
						C166.153,199.786,154.92,185.831,154.92,185.831z"/>
				</g>
			</g>
			<path fill="#009B6F" d="M112.072,52.393l-11.317-6.023L90.164,30.868l-5.918-5.992L81.113,9.345l-0.756,10.329
				c0,3.443-3.79,7.739-5.292,13.774c-1.521,6.023-11.341,9.484-11.341,9.484l-9.06,5.14l4.528,1.729l7.568-3.432l0.735,6.023
				c0,4.308,7.568-1.728,7.568-1.728c3.772-4.295,4.524,0.864,4.524,0.864c-0.752,3.456,2.265,2.58,2.265,2.58l3.028-8.603
				c2.789-4.697-4.525-6.887-4.525-6.887l3.554-4.66c1.642,3.929,4.744,4.66,4.744,4.66l0.762,7.751
				c2.275,3.432,3.011-1.728,3.011-1.728l4.211,4.781c3.443,1.338,7.13,3.833,7.13,3.833l-0.762-4.313L112.072,52.393z"/>
			<path fill="#009B6F" d="M82.518,70.449c0,0-9.723,1.757-7.452-2.568c0,0,3.772-6.01-4.531,0c0,0-10.573,10.342-15.869,10.342
				c0,0-12.08,1.729-15.116,6.029c0,0,6.053,0.845,9.065-0.856c3.034-1.728,9.076-0.865,9.076-0.865s2.271,6.887,7.542-2.578
				l4.54-5.185c0,0,6.048,5.185,8.304,0C80.357,69.614,82.518,70.449,82.518,70.449z"/>
			<path fill="#009B6F" d="M99.99,71.336c0,0,0.676,10.72-2.676,7.52l-5.963-8.846c0,0-8.549,2.481-4.483,4.501l4.472,5.696
				l4.878,8.345c0,0,3.438,6.268,2.258-1.728c-1.161-7.968,2.279-2.572,2.279-2.572l1.49,4.3l2.276-4.3c0,0,4.533,6.887,6.789,3.438
				c0,0,5.298,8.615,5.298,3.45l6.771,0.433l-12.069-8.176C111.311,83.396,103.007,81.668,99.99,71.336z"/>
			<path fill="#009B6F" d="M81.78,90.001c0,0-4.94-1.947-6.715,0.729c-1.79,2.652-1.186,5.986-1.186,5.986l-4.148,6
				c0,0-3.554,2.664-2.964,5.328l2.371,0.67c0,0-1.781,1.982-0.602,4.658c1.194,2.667,2.385-0.667,2.385-0.667l2.354,5.328
				c0,0,0.604-1.339,0.604-4.003c0-2.658,6.508,3.333,6.508,3.333s1.2-0.741-2.062-4.356c-3.26-3.618,5.031,1.022,5.031,1.022
				s-0.637-5.34-2.732-5.142c-2.086,0.178,2.143-2.184,0.359-5.506l1.182-6.667L81.78,90.001z"/>
			<path fill="#009B6F" d="M99.229,147.965c0,0-7.536,0-9.064-6.887c0,0-2.268-6.878-3.018-2.59l-3.778-2.566
				c0,0-0.427-11.427,4.697-4.857c5.124,6.57-0.919-2.042-0.919-2.042l6.795,4.306l-0.752-6.898l6.039,4.32l6.055,6.04l9.817,4.288
				c0,0,10.579,2.581,12.837,5.165c2.276,2.575-1.496,2.575-1.496,2.575l-6.042-1.728c0,0-5.299-3.432-5.299-0.848l-0.978,8.22
				c0,0-4.31-3.055-5.829-7.373c0,0-5.287-9.456-5.287-4.297c0,5.171-3.778,0-3.778,0V147.965z"/>
			<path fill="#009B6F" d="M93.189,95.451c0,0-0.231,6.753,4.561,9.516c4.818,2.773,4.495-1.775,4.495-1.775l3.038,4.306
				l3.771,7.752c0,0,0.937,2.7,0.845-2.958l6.049,4.235l3.687,4.744l-0.762-6.887l6.048,3.443c0,0-9.729-17.777-16.962-18.773
				c0,0-2.024,7.554-6.881,1.982c-4.86-5.586,0.414-2.143,0.414-2.143v-2.59l-3.017,0.862L93.189,95.451z"/>
			<path fill="#009B6F" d="M64.486,128.164c0,0-8.304-4.315-13.597-1.733l-18.124,8.626c0,0-8.322,3.432-11.333,6.022
				c-3.019,2.581-4.533,2.581,7.543-0.862l8.693,1.324l3.4-3.052l1.661,6.425l4.387-8.123l4.531,0.845c0,0,3.017-0.845,2.258-5.171
				L64.486,128.164z"/>
			<g>
				<polygon fill="#009B6F" points="59.193,102.332 61.469,103.191 65.232,94.588 				"/>
				<path fill="#009B6F" d="M50.89,104.907c0,0-15.867,3.456-18.884,7.75c-3.03,4.32,5.042,1.751,5.042,1.751l3.261,3.419h3.03
					v-5.171c0,0,3.017-2.566,7.551-2.566l2.268,3.438l3.025-4.303C56.183,109.225,66.092,97.264,50.89,104.907z"/>
			</g>
			<path fill="#009B6F" d="M118.12,162.604l2.279,3.443c0,0,7.538,0,9.814,0.851c2.255,0.851,10.567,7.764,10.567,7.764l6.801,7.749
				c0,0,13.614,10.336,4.525,6.01c-9.06-4.306-15.866-9.459-15.866-9.459l1.515,6.016l-4.531-1.716l-3.772,2.581
				c0,0-1.941-6.158-6.807-8.603c-4.854-2.445-2.246-0.862-2.246-0.862l-14.364-2.569c0,0,11.676,4.94,15.288,8.055l14.918,16.038
				c0,0,3.784,9.465-7.548-3.432l-6.804-2.593l0.756,4.297c0,0-4.525-8.603-11.335-7.752c0,0-13.59-7.737-15.849-11.181l0.756-6.021
				c0,0,0.797-4.188-5.274-3.823c0,0,8.285-3.595,11.693,1.401l10.318,1.144c0,0,3.289-1.176,0.631-2.193
				c0,0-4.531-10.304-10.579-10.304c-6.042,0,4.531,0,9.817,2.566L118.12,162.604z"/>
			<path fill="#009B6F" d="M75.065,158.295c0,0-14.352,14.639-15.104,18.945l-6.804,5.171l5.28,4.294l9.82-9.465
				c0,0-3.771-8.615,0.759-10.342C73.545,165.182,78.076,170.359,75.065,158.295z"/>
			<path fill="#009B6F" d="M45.602,185.843c0,0,12.836-0.865,15.112,2.578c2.264,3.456-6.049,0.865-11.341,3.456
				c-5.286,2.593-5.286,7.758-5.286,10.33c0,2.569,1.145,10.799-1.703,4.528c0,0-2.835-0.231-4.337,2.359
				c-1.509,2.581-2.903-3.254-3.785,0.865c0,0,0.231-11.839,5.019-14.968L45.602,185.843z"/>
			<path fill="#009B6F" d="M82.61,173.809c0,0-12.838,7.746-14.353,12.034c0,0-0.761,6.905-3.025,6.905
				c-2.255,0-7.731-2.403-10.656,3.529l-2.178,22.297c0,0,2.664,0.803,3.784-3.444c1.105-4.27,6.893-4.747,6.893-4.747l2.157,3.02
				l1.529-6.036l4.421,4.344l1.612-12.947c0,0,1.509-3.443,3.772-4.294c2.271-0.877,2.271-9.492,2.271-9.492
				S87.896,181.555,82.61,173.809z"/>
			<path fill="#009B6F" d="M90.931,174.662l18.124,28.41l5.293,15.501c0,0-3.778,0-6.81-6.899c-3.017-6.899-0.747,6.033-4.531-2.581
				l-5.286-4.318c0,0-5.293-4.297-6.79-13.762l-3.784-0.859C87.146,190.155,84.883,162.604,90.931,174.662z"/>
			<path fill="#009B6F" d="M73.545,136.79c0,0-14.352-1.734-22.655,6.004c-8.305,7.752-27.201,23.253-27.201,23.253l-12.835,14.636
				l13.59-8.603l-2.817,4.374l8.109-7.83l7.562-0.877l5.287-7.737c0,0,4.532-2.566,6.029,0.871c0,0,6.807,0,3.784-7.758l9.817-4.306
				C62.216,148.818,82.61,145.387,73.545,136.79z"/>
		</g>
	</g>
</g>
</svg>
